<svg xmlns="http://www.w3.org/2000/svg" width="2480px" height="2480px" viewBox="0 0 2480 2480"><g><circle fill="#FB6600" cx="1240" cy="1240" r="1240"/><path fill="#E05900" d="M2480 1240c0,-8 0,-15 0,-23l-726 -726 -203 202 883 882c30,-106 46,-219 46,-335z"/><path fill="#E05900" d="M1335 2476l-586 -585 486 -64 -409 -409 64 -606 612 -70 909 908c-160,455 -577,789 -1076,826z"/><path fill="#FFFFFF" d="M1419 1499c-5,165 -141,297 -306,297 -76,0 -149,-28 -206,-79l-158 174c100,90 229,140 364,140 298,0 541,-242 541,-541l-220 0c135,-81 219,-228 219,-414 0,-222 -217,-484 -484,-484 -268,0 -484,216 -484,484 0,267 216,484 484,484 93,0 178,-21 250,-61zm233 -1050c-78,0 -142,64 -142,143 0,78 64,142 142,142 79,0 143,-63 143,-142 0,-79 -64,-143 -143,-143zm-483 873c-136,0 -246,-110 -246,-246 0,-136 110,-246 246,-246 136,0 246,110 246,246 0,136 -110,246 -246,246z"/></g></svg>
