<svg xmlns="http://www.w3.org/2000/svg" width="2480px" height="2480px" viewBox="0 0 2480 2480"><defs><linearGradient id="id0" gradientUnits="userSpaceOnUse" x1="1240" y1="0" x2="1240" y2="2480">            <stop offset="0" stop-opacity="1" stop-color="#F58220"/><stop offset="1" stop-opacity="1" stop-color="#B95827"/></linearGradient></defs><g><circle fill="url(#id0)" cx="1240" cy="1240" r="1240"/><path fill="#FFFFFF" d="M2043 526c51,9 92,50 101,101 18,91 -61,170 -152,153 -51,-10 -92,-51 -102,-102 -17,-91 61,-170 153,-152zm-1330 1239c23,0 750,0 819,0 152,0 272,-144 274,-296 0,-1 0,-1 0,-2 -1,1 -2,1 -2,1 -96,58 -218,-14 -218,-126l1 -28c52,-2 101,-22 138,-54 56,-48 87,-124 74,-206 -16,-95 -93,-170 -189,-183 -110,-15 -207,51 -240,146 -3,7 -5,15 -7,22l-26 1c0,0 0,0 0,0l-39 0c-69,0 -111,-49 -111,-119 0,0 -5,-3 -10,-5 -3,-2 -6,-3 -6,-4 -38,-11 -78,-15 -120,-9 -142,19 -245,148 -245,295 54,35 122,36 177,3l1 0c0,53 -4,192 -265,182 -94,0 -178,68 -191,163 -17,118 72,219 185,219zm1096 -298l0 -1 153 0 57 0c0,271 -220,491 -490,491l-805 0c-207,0 -383,-166 -387,-377 -4,-183 118,-337 283,-380 0,-4 -1,-8 -1,-12 0,-265 211,-480 472,-480 64,0 148,18 204,49 0,0 0,0 0,0 84,-71 195,-112 315,-103 215,14 390,187 407,402 8,107 -22,207 -79,287 -5,7 -10,14 -15,21 -1,0 -1,1 -2,1 -24,31 -53,59 -85,82 -9,7 -18,13 -27,20z"/></g></svg>
