<svg xmlns="http://www.w3.org/2000/svg" width="2480px" height="2480px" viewBox="0 0 2480 2480"><g><circle fill="#FB6600" cx="1240" cy="1240" r="1240"/><path fill="#E05900" d="M1799 673l-1097 -30 -105 437 629 630 -181 238 496 495c505,-126 911,-560 934,-1093l-676 -677z"/><path fill="#FFFFFF" d="M763 1080l-166 0c0,-24 -1,-84 -1,-100 0,-88 5,-154 16,-199 10,-45 29,-81 56,-109 40,-42 93,-68 159,-81 65,-12 186,-18 363,-18 242,0 402,10 481,30 83,21 143,69 180,145 27,53 40,133 40,239 0,69 -6,125 -19,168 -13,43 -34,78 -64,108 -32,33 -74,58 -125,75 -51,17 -122,29 -213,38 -75,7 -128,17 -160,30 -32,12 -51,30 -58,55 -4,15 -7,46 -8,93l-168 0c0,-87 10,-149 30,-187 22,-42 57,-74 105,-95 48,-22 119,-38 212,-49 72,-8 127,-17 164,-28 38,-10 66,-25 84,-43 35,-33 52,-95 52,-187 0,-118 -36,-187 -109,-207 -69,-18 -210,-28 -423,-28 -218,0 -346,20 -385,57 -16,16 -27,39 -31,69 -2,8 -3,17 -4,28 -1,12 -2,25 -3,40 -1,16 -2,33 -3,52 -1,19 -1,81 -2,104zm282 630l232 0 0 238 -232 0 0 -238z"/></g></svg>