<svg xmlns="http://www.w3.org/2000/svg" width="2480px" height="2480px" viewBox="0 0 2480 2480"><g><circle fill="#FB6600" cx="1240" cy="1240" r="1240"/><path fill="#E05900" d="M2474 1357l-615 -607 -1203 0 -114 287 88 740 712 698c599,-48 1077,-520 1132,-1118l0 0z"/><path fill="#FFFFFF" d="M1192 1253l779 0c-1,184 -7,303 -18,358 -12,61 -31,107 -58,137 -26,31 -66,55 -120,74 -73,23 -237,35 -493,35 -241,0 -411,-8 -511,-23 -87,-14 -150,-52 -189,-113 -44,-69 -65,-222 -65,-460 0,-164 12,-293 35,-385 23,-87 77,-145 162,-172 85,-27 252,-41 501,-41 81,0 173,2 275,6 102,5 172,10 209,15 76,10 138,40 185,88 29,29 49,64 60,102 12,39 18,94 19,165l-163 0c-2,-92 -15,-150 -39,-174 -15,-15 -37,-26 -66,-33 -28,-7 -74,-13 -136,-18 -85,-5 -191,-8 -317,-8 -167,0 -286,4 -359,13 -74,8 -122,24 -146,47 -22,20 -37,58 -46,112 -8,55 -12,141 -12,261 0,178 7,295 22,350 9,34 23,58 43,74 20,16 50,27 89,33 78,12 247,19 510,19 145,0 252,-6 321,-18 63,-10 102,-33 120,-68 17,-35 26,-114 28,-237l-620 0 0 -139z"/></g></svg>