<svg xmlns="http://www.w3.org/2000/svg" width="2480px" height="2480px" viewBox="0 0 2480 2480"><g><circle cx="1240" cy="1240" r="1240" fill="#FB6600"/><path fill="#E05900" d="M2474 1357l-600 -562 -189 -183 -1091 1140 140 140 608 583c599,-48 1077,-520 1132,-1118l0 0z"/><path fill="#FFFFFF" d="M588 1667l555 -555c-55,-140 -25,-305 91,-420 122,-122 305,-147 451,-80l-262 262 183 183 268 -262c73,146 42,329 -80,451 -115,116 -280,146 -420,92l-554 554c-25,24 -61,24 -86,0l-140 -140c-30,-25 -30,-67 -6,-85l0 0z"/></g></svg>